<svg xmlns="http://www.w3.org/2000/svg" xmlns:xlink="http://www.w3.org/1999/xlink" viewBox="0 0 64.615 20.615" fill="#fff" fill-rule="evenodd" stroke="#000" stroke-linecap="round" stroke-linejoin="round"><style><![CDATA[.B{fill-rule:nonzero}]]></style><use xlink:href="#A" x=".807" y=".807"/><symbol id="A" overflow="visible"><g stroke="#28a5da" fill="none" stroke-width="1.615"><use xlink:href="#C"/><use xlink:href="#D"/><use xlink:href="#E"/><use xlink:href="#F"/><use xlink:href="#G"/><use xlink:href="#H"/><use xlink:href="#I"/><use xlink:href="#J"/><use xlink:href="#K"/><use xlink:href="#L"/><use xlink:href="#M"/><use xlink:href="#N"/><use xlink:href="#O"/></g><g stroke="none"><g fill="#f7f8f9" class="B"><use xlink:href="#C"/><use xlink:href="#D"/><use xlink:href="#E"/><use xlink:href="#F"/><use xlink:href="#G"/><use xlink:href="#H"/><use xlink:href="#I"/><use xlink:href="#P"/><use xlink:href="#J"/><use xlink:href="#K"/><use xlink:href="#L"/><use xlink:href="#M"/><use xlink:href="#N"/><use xlink:href="#O"/></g><g fill="#f9a737"><use xlink:href="#D" class="B"/><use xlink:href="#F" class="B"/><use xlink:href="#H" class="B"/><use xlink:href="#P" class="B"/><use xlink:href="#K" class="B"/><use xlink:href="#M" class="B"/><use xlink:href="#O" class="B"/></g></g></symbol><defs ><path id="C" d="M2.945 18.321c-1.524 0-2.802-1.195-2.91-2.718l-.003-.061a24.49 24.49 0 0 1 .002-2.515l.058-1.92V11.1c.01-.722.288-1.383.737-1.889-.222-.775-.294-1.7-.156-2.789l.021-.171c.079-.645.196-1.601.682-2.52.734-1.389 2.08-2.186 3.691-2.186l.287.008a3.98 3.98 0 0 1 .471.055A2.91 2.91 0 0 1 7.755.877h.03a2.93 2.93 0 0 1 2.885 2.932v.033l-.19 4.408-.01.06a2.93 2.93 0 0 1-.184.621c.706.829 1.087 1.86 1.099 3.024.016 1.464-.654 2.886-1.839 3.9-1.017.872-2.306 1.351-3.63 1.351-.215 0-.429-.012-.643-.037l-.138.168a2.9 2.9 0 0 1-2.008.98l-.182.006z"/><path id="D" d="M5.132 8.994c-.735-.115-1.124-.604-.931-2.125l.024-.184c.163-1.323.303-1.612.934-1.58.189.012.403.129.619.305.194.229.639.527.884 1.118.18.431.241.712.264 1.014a47.71 47.71 0 0 1 .043.371h0a.64.64 0 0 0 1.259-.007 1031.36 1031.36 0 0 0 .165-4.109.64.64 0 0 0-.635-.643c-.355-.001-.643.284-.646.638l-.013 1.114c-.502-.549-1.15-1.04-1.87-1.081-1.939-.105-2.149 1.675-2.275 2.702l-.023.18c-.258 2.024.417 3.303 2.004 3.551 1.726.272 2.879.669 2.89 1.731.004.41-.211.834-.592 1.16a2.04 2.04 0 0 1-1.641.468c-.172-.028-.341-.072-.506-.13-.229-.125-.798-.47-1.086-.871-.244-.338-.327-.869-.354-1.205l.006-.263c.004-.352-.278-.642-.632-.648a.64.64 0 0 0-.651.631l-.061 2.02c-.067 1.216-.002 2.247 0 2.291a.64.64 0 1 0 1.28-.082l-.028-1.198a4.87 4.87 0 0 0 1.822.718c.955.16 1.933-.116 2.683-.759.67-.573 1.051-1.356 1.041-2.146-.026-2.366-2.691-2.782-3.976-2.984z"/><path id="E" d="M25.051 17.723c-.554-.001-1.111-.112-1.701-.341-.522-.202-.939-.509-1.265-.837a2.88 2.88 0 0 1-.681.185l-3.09.453c-.14.02-.281.03-.423.03-1.442 0-2.684-1.077-2.889-2.505-.112-.761.081-1.53.547-2.156a2.91 2.91 0 0 1 .846-.765l-.002-.447c-.594-.535-.969-1.309-.969-2.17-.001-.609.19-1.203.545-1.697a2.92 2.92 0 0 1-1.306-2.035 2.89 2.89 0 0 1 .547-2.156c.467-.627 1.149-1.034 1.923-1.145.645-.095 1.948-.258 3.335-.258 3.076 0 5.035.788 5.987 2.409.497.848 1.063 2.552-.421 4.749a8.82 8.82 0 0 1 .316 1.51h.03c.29 0 .579.043.856.129 1.543.477 2.407 2.115 1.932 3.653-.463 1.493-1.201 2.418-2.394 2.998-.547.264-1.123.396-1.723.396z"/><path id="F" d="M26.569 12.855a.64.64 0 0 0-.802.423c-.234.761-.421.789-.551.851s-.302.044-.581-.065c-.043-.025-.159-.176-.225-.317-.1-.215-.217-1.106-.229-1.616-.049-1.881-.376-2.914-.904-3.484a3.09 3.09 0 0 0 .645-.577c.005-.005.009-.008.013-.016.785-1.018.971-1.897.554-2.612-1.047-1.783-5.647-1.254-7.032-1.049a.64.64 0 0 0-.539.727c.048.352.375.592.725.539l1.002-.119.013 2.982-.317.01a.64.64 0 0 0-.64.64.64.64 0 0 0 .64.641l.323-.008.014 3.728-.882.129a.64.64 0 1 0 .185 1.27l3.091-.454a.64.64 0 0 0 .541-.724c-.051-.352-.377-.593-.726-.545l-.928.138-.017-3.675a13.05 13.05 0 0 0 1.68-.379h.001a.93.93 0 0 1 .225-.004c.258.044.399.091.549.301.209.291.466.975.505 2.576.008.309.089 1.571.349 2.126.081.175.391.762.925.969.393.154.986.318 1.602.022.568-.277.922-.68 1.215-1.624a.64.64 0 0 0-.423-.802zm-3.641-5.719c-.057.067-.22.239-.39.341-.158.092-.373.157-.58.22l-.325.104a11.18 11.18 0 0 1-1.692.447l-.012-2.913c1.694-.047 3.172.143 3.457.633.026.042.038.096.038.159 0 .234-.174.595-.495 1.01z"/><path id="G" d="M46.705 17.596c-3.301 0-5.192-2.482-5.353-4.933h.001l-.031-1.283v-.078l.031-1.918c.166-2.349.979-3.988 2.416-4.872.682-.422 1.46-.637 2.307-.637a5.25 5.25 0 0 1 .823.066 2.91 2.91 0 0 1 2.185-.985c1.61 0 2.919 1.309 2.919 2.918v2.776c0 .325-.055.648-.162.954.401.475.654 1.078.686 1.736l.02.515-.035.856a.73.73 0 0 1-.009.074c-.068.485-.244 1.408-.657 2.132-.266.464-.542.799-.802 1.092-.523.589-1.124.916-1.645 1.16-.868.408-1.617.416-2.165.421l-.345.004-.187.003z"/><path id="H" d="M49.603 10.84a.64.64 0 0 0-.628.64c0 .003.017.207.017.233l-.016.603c-.041.265-.134.686-.221.836-.096.168-.197.294-.375.498-.1.114-.344.227-.489.297-.164.076-.323.079-.695.083l-.389.005c-1.666.054-1.876-1.301-1.903-1.598l-.02-1.099.02-1.716c.08-1.1.34-1.84.731-2.079.301-.188.783-.137 1.474.151.849.354 1.427 1.281 1.433 1.288.15.244.444.357.719.281a.64.64 0 0 0 .467-.615V5.873a.64.64 0 0 0-.641-.64c-.351 0-.641.288-.641.64v1.141c-.248-.193-.531-.37-.845-.501-.404-.169-1.633-.681-2.638-.061-.787.484-1.224 1.496-1.337 3.093-.001.012-.025 1.788-.025 1.788l.025 1.182c.066 1.002.825 2.878 3.221 2.801l.359-.004c.433-.004.805-.007 1.231-.206.303-.142.65-.32.905-.607.184-.209.363-.421.528-.71.246-.432.36-1.177.38-1.32.003-.023.024-.73.024-.73.002-.01-.018-.268-.018-.268a.64.64 0 0 0-.652-.629z"/><path id="I" d="M55.807 18.623a2.74 2.74 0 0 1-1.859-.728 2.87 2.87 0 0 1-.517-.626l-2.407-.04c-1.604-.028-2.891-1.354-2.87-2.955.02-1.168.73-2.173 1.731-2.626l.008-4.473c-.999-.464-1.695-1.477-1.695-2.65 0-1.609 1.309-2.918 2.918-2.918h2.744c.525-.636 1.313-1.05 2.2-1.067L59.448.48c1.583 0 2.892 1.287 2.919 2.87.017 1.156-.639 2.166-1.604 2.655l.037 6.475c.885.456 1.513 1.354 1.58 2.408.103 1.607-1.119 2.998-2.724 3.1-1.324.087-2.169.237-2.406.304l-.139.052c-.293.111-.735.28-1.303.28z"/><path id="J" d="M32.447 15.275a2.89 2.89 0 0 1-1.745-.582c-.109-.08-.212-.168-.309-.262a2.92 2.92 0 0 1-1.186.25c-.044 0-.088-.001-.132-.003l-3.194-.151c-1.605-.075-2.852-1.442-2.78-3.047.07-1.561 1.351-2.785 2.917-2.785h.04l.522-2.615a2.93 2.93 0 0 1-2.023-2.399c-.21-1.594.912-3.062 2.5-3.278l2.742-.377A2.94 2.94 0 0 1 30.193 0c.804 0 1.579.336 2.131.924.2.212.489.63.643.998l2.406 5.816.039.093h.023c1.231.002 2.329.774 2.748 1.933a2.93 2.93 0 0 1-1.752 3.73c-.961.344-1.577.659-1.8.799-.555.623-1.349.98-2.184.982z"/><path id="K" d="M35.218 10.147c-.19.067-.557.252-1.126.502l-.823-2.033-2.408-5.822a1.86 1.86 0 0 0-.2-.311.64.64 0 0 0-.553-.198l-2.745.377c-.35.049-.595.37-.549.72a.64.64 0 0 0 .72.55l1.849-.259-1.479 7.391-1.858-.09a.64.64 0 0 0-.67.611.64.64 0 0 0 .612.667l3.189.151c.353.016.653-.257.67-.609s-.191-.675-.647-.675l.147-.976 2.962-.491.634 1.568c-.483.276-.784.451-1.01.754a.64.64 0 1 0 1.031.764c.285-.384 1.493-.957 2.688-1.385.332-.121.504-.488.386-.82a.64.64 0 0 0-.819-.386zm-5.599-1.032l.785-3.844 1.409 3.481z"/><path id="L" d="M36.974 17.106c-1.581 0-2.89-1.289-2.918-2.871-.02-1.296.81-2.41 1.972-2.809l-.002-.862-.263.051a2.88 2.88 0 0 1-.434.033 2.9 2.9 0 0 1-2.885-2.484l-.488-3.142a2.91 2.91 0 0 1 .659-2.329c.541-.644 1.343-1.022 2.193-1.032l4.075-.068 4.073-.179c.783.001 1.534.316 2.084.873.586.589.892 1.421.828 2.268l-.075 2.153c.032 1.182-.614 2.251-1.666 2.742a3 3 0 0 1-1.265.284c-.341 0-.679-.061-.999-.18l.004 1.833c1.107.405 1.91 1.464 1.927 2.703.012.78-.283 1.519-.83 2.079s-1.277.872-2.058.879c0 0-3.92.058-3.931.058z"/><path id="M" d="M42.913 3.694c-.02.003-1.895.137-3.992.178l-4.087.068a.63.63 0 0 0-.48.226c-.12.14-.175.325-.147.507l.49 3.152a.64.64 0 0 0 1.274-.095c0-.029-.257-1.643-.387-2.521l2.711-.046.017 8.366-1.346.017a.64.64 0 0 0-.631.649c.007.355.296.637.648.633l3.901-.058a.64.64 0 0 0 .632-.649c-.005-.355-.297-.635-.65-.632l-1.274.019-.017-8.37 2.694-.119-.048 1.226c0 .685.073.815.129.912.163.296.509.375.814.23.238-.111.365-.377.35-.639-.001-.011.012-1.445.082-2.363a.64.64 0 0 0-.184-.502c-.13-.132-.314-.2-.499-.188z"/><path id="N" d="M13.038 18.397c-3.286-.001-5.177-2.456-5.357-4.895l-.008-.187-.023-1.184.023-1.774.007-.179c.169-2.347.982-3.986 2.417-4.868.684-.422 1.461-.635 2.306-.635.29 0 .567.026.825.067.535-.605 1.317-.987 2.187-.987 1.609 0 2.918 1.31 2.918 2.919v2.773a2.89 2.89 0 0 1-.132.866c.39.478.633 1.08.656 1.736l.018.337.003.123-.048 1.081c-.085.598-.268 1.451-.657 2.129-.268.471-.549.805-.793 1.083-.534.597-1.134.924-1.652 1.166-.867.409-1.617.416-2.165.421l-.334.007-.19.003z"/><path id="O" d="M15.932 11.512a.64.64 0 0 0-.63.641l.017.36-.016.602c-.04.264-.132.686-.219.836a2.81 2.81 0 0 1-.377.497c-.099.115-.342.229-.489.296-.164.077-.321.081-.694.085l-.391.006c-1.666.051-1.875-1.3-1.902-1.599l-.023-1.098.023-1.717c.081-1.1.339-1.841.731-2.079.3-.188.783-.137 1.473.151.849.356 1.429 1.279 1.433 1.289a.64.64 0 0 0 1.188-.336V6.674a.64.64 0 0 0-1.094-.454.64.64 0 0 0-.187.454v1.138c-.249-.194-.531-.371-.846-.501-.404-.169-1.633-.679-2.637-.061-.787.484-1.224 1.496-1.339 3.094l-.001.035-.024 1.775.024 1.132c0 .009 0 .018.001.028.067 1.004.825 2.877 3.221 2.805l.36-.008c.432-.004.805-.006 1.231-.206.305-.142.648-.319.905-.607.184-.209.363-.421.527-.71.247-.432.358-1.177.379-1.32a64.92 64.92 0 0 0 .025-.758l-.019-.366a.64.64 0 0 0-.649-.631z"/><path id="P" d="M60.107 15.034a.64.64 0 0 0-.68-.597l-.9.077-.054-10.458.986-.014c.352-.006.635-.299.63-.653a.64.64 0 0 0-.65-.631l-3.334.056a.64.64 0 1 0 .02 1.281l1.066-.019.027 4.439-3.767.63.007-3.979h1.024a.64.64 0 1 0 0-1.283h-3.364a.64.64 0 0 0 0 1.283h1.059l-.015 8.523-1.078-.019a.64.64 0 1 0-.02 1.281l3.46.058a.64.64 0 0 0 .021-1.281l-1.103-.018.007-3.268 3.778-.63.022 4.884c-.872.165-1.458.234-1.813.632a.63.63 0 0 0 .055.889c.257.237.544.095.906-.039l-.005.003c.37-.168 1.589-.367 3.118-.467a.64.64 0 0 0 .597-.681z"/></defs></svg>